<?xml version="1.0" encoding="utf-8"?>
<!-- Generator: Adobe Illustrator 15.0.0, SVG Export Plug-In . SVG Version: 6.00 Build 0)  -->
<!DOCTYPE svg PUBLIC "-//W3C//DTD SVG 1.1//EN" "http://www.w3.org/Graphics/SVG/1.1/DTD/svg11.dtd">
<svg version="1.1" id="Layer_1" xmlns="http://www.w3.org/2000/svg" xmlns:xlink="http://www.w3.org/1999/xlink" x="0px" y="0px"
	 width="500px" height="100px" viewBox="0 0 500 100" enable-background="new 0 0 500 100" xml:space="preserve">
<g>
	<g>
		<path fill-rule="evenodd" clip-rule="evenodd" fill="#E91E63" d="M49.994,24.996c25.622-20.012,53.473,8.792,37.995,35.995
			c-6.271,11.022-28.475,29.887-36.995,29.996C40.581,91.122,11.521,64.311,8.999,51.992C3.288,24.104,30.882,9.987,49.994,24.996z
			 M83.989,46.993c1.167-10.178-3.293-18.294-10.999-19.998c-13.125-2.902-14.137,6.696-22.997,9.999
			c-6.026-2.73-6.455-8.635-11.999-9.999c-14.772-3.634-22.839,8.585-20.997,20.998c2.194,14.787,26.237,28.926,33.996,33.996
			C60.175,74.118,82.083,63.619,83.989,46.993z"/>
		<path fill-rule="evenodd" clip-rule="evenodd" fill="#E91E63" d="M147.981,24.996c25.622-20.012,53.473,8.792,37.995,35.995
			c-6.271,11.022-28.475,29.887-36.995,29.996c-10.413,0.135-39.473-26.677-41.995-38.995
			C101.276,24.104,128.87,9.987,147.981,24.996z M181.977,46.993c1.167-10.178-3.293-18.294-10.999-19.998
			c-13.125-2.902-14.137,6.696-22.997,9.999c-6.027-2.73-6.455-8.635-11.999-9.999c-14.772-3.634-22.839,8.585-20.997,20.998
			c2.194,14.787,26.237,28.926,33.996,33.996C158.163,74.118,180.071,63.619,181.977,46.993z"/>
		<path fill-rule="evenodd" clip-rule="evenodd" fill="#E91E63" d="M245.969,24.996c25.622-20.012,53.472,8.792,37.996,35.995
			c-6.271,11.022-28.476,29.887-36.996,29.996c-10.413,0.135-39.473-26.677-41.995-38.995
			C199.264,24.104,226.857,9.987,245.969,24.996z M279.965,46.993c1.167-10.178-3.293-18.294-10.998-19.998
			c-13.126-2.902-14.138,6.696-22.998,9.999c-6.027-2.73-6.455-8.635-11.999-9.999c-14.772-3.634-22.839,8.585-20.998,20.998
			c2.194,14.787,26.238,28.926,33.996,33.996C256.15,74.118,278.059,63.619,279.965,46.993z"/>
		<path fill-rule="evenodd" clip-rule="evenodd" fill="#E91E63" d="M344.957,24.996c25.621-20.012,53.473,8.792,37.995,35.995
			c-6.271,11.022-28.475,29.887-36.995,29.996c-10.413,0.135-39.473-26.677-41.995-38.995
			C298.251,24.104,325.845,9.987,344.957,24.996z M378.952,46.993c1.168-10.178-3.293-18.294-10.998-19.998
			c-13.125-2.902-14.138,6.696-22.997,9.999c-6.027-2.73-6.455-8.635-11.999-9.999c-14.771-3.634-22.839,8.585-20.997,20.998
			c2.194,14.787,26.237,28.926,33.996,33.996C355.138,74.118,377.046,63.619,378.952,46.993z"/>
		<path fill-rule="evenodd" clip-rule="evenodd" fill="#E91E63" d="M443.944,24.996c25.622-20.012,53.473,8.792,37.995,35.995
			c-6.271,11.022-28.475,29.887-36.995,29.996c-10.413,0.135-39.473-26.677-41.995-38.995
			C397.239,24.104,424.832,9.987,443.944,24.996z M477.94,46.993c1.167-10.178-3.294-18.294-10.999-19.998
			c-13.125-2.902-14.137,6.696-22.997,9.999c-6.026-2.73-6.454-8.635-11.998-9.999c-14.772-3.634-22.84,8.585-20.998,20.998
			c2.194,14.787,26.237,28.926,33.996,33.996C454.126,74.118,476.034,63.619,477.94,46.993z"/>
	</g>
</g>
<path fill="#E91E63" d="M51.086,32.811v53l-36.25-28.667V32.811l10.985-8c0,0,16.477-1.667,16.843,0
	c0.367,1.667,8.422,6.667,8.422,6.667"/>
<path fill="#E91E63" d="M149.836,32.811v53l-36.25-28.667V32.811l10.985-8c0,0,16.477-1.667,16.843,0
	c0.367,1.667,8.422,6.667,8.422,6.667"/>
<path fill="#E91E63" d="M48.086,32.811v53l36.25-28.667V32.811l-10.985-8c0,0-16.477-1.667-16.843,0
	c-0.367,1.667-8.422,6.667-8.422,6.667"/>
<path fill="#E91E63" d="M148.336,32.811v53l36.25-28.667V32.811l-10.985-8c0,0-16.477-1.667-16.843,0
	c-0.367,1.667-8.422,6.667-8.422,6.667"/>
</svg>
