<?xml version="1.0" encoding="UTF-8" standalone="no"?>
<svg width="479px" height="73px" viewBox="0 0 479 73" version="1.1" xmlns="http://www.w3.org/2000/svg" xmlns:xlink="http://www.w3.org/1999/xlink" xmlns:sketch="http://www.bohemiancoding.com/sketch/ns">
    <!-- Generator: Sketch 3.2.1 (9977) - http://www.bohemiancoding.com/sketch -->
    <title>5TwoAndHalfRating</title>
    <desc>Created with Sketch.</desc>
    <defs></defs>
    <g id="Page-1" stroke="none" stroke-width="1" fill="none" fill-rule="evenodd" sketch:type="MSPage">
        <g id="5TwoAndHalfRating" sketch:type="MSLayerGroup" fill="#E91E63">
            <g id="Group" sketch:type="MSShapeGroup">
                <path d="M41.994,6.996 C67.616,-13.016 95.467,15.788 79.989,42.991 C73.718,54.013 51.514,72.878 42.994,72.987 C32.581,73.122 3.521,46.311 0.999,33.992 C-4.712,6.104 22.882,-8.013 41.994,6.996 L41.994,6.996 Z M75.989,28.993 C77.156,18.815 72.696,10.699 64.99,8.995 C51.865,6.093 50.853,15.691 41.993,18.994 C35.967,16.264 35.538,10.359 29.994,8.995 C15.222,5.361 7.155,17.58 8.997,29.993 C11.191,44.78 35.234,58.919 42.993,63.989 C52.175,56.118 74.083,45.619 75.989,28.993 L75.989,28.993 Z" id="Shape"></path>
                <path d="M139.981,6.996 C165.603,-13.016 193.454,15.788 177.976,42.991 C171.705,54.013 149.501,72.878 140.981,72.987 C130.568,73.122 101.508,46.31 98.986,33.992 C93.276,6.104 120.87,-8.013 139.981,6.996 L139.981,6.996 Z M173.977,28.993 C175.144,18.815 170.684,10.699 162.978,8.995 C149.853,6.093 148.841,15.691 139.981,18.994 C133.954,16.264 133.526,10.359 127.982,8.995 C113.21,5.361 105.143,17.58 106.985,29.993 C109.179,44.78 133.222,58.919 140.981,63.989 C150.163,56.118 172.071,45.619 173.977,28.993 L173.977,28.993 Z" id="Shape"></path>
                <path d="M237.969,6.996 C263.591,-13.016 291.441,15.788 275.965,42.991 C269.694,54.013 247.489,72.878 238.969,72.987 C228.556,73.122 199.496,46.31 196.974,33.992 C191.264,6.104 218.857,-8.013 237.969,6.996 L237.969,6.996 Z M271.965,28.993 C273.132,18.815 268.672,10.699 260.967,8.995 C247.841,6.093 246.829,15.691 237.969,18.994 C231.942,16.264 231.514,10.359 225.97,8.995 C211.198,5.361 203.131,17.58 204.972,29.993 C207.166,44.78 231.21,58.919 238.968,63.989 C248.15,56.118 270.059,45.619 271.965,28.993 L271.965,28.993 Z" id="Shape"></path>
                <path d="M336.957,6.996 C362.578,-13.016 390.43,15.788 374.952,42.991 C368.681,54.013 346.477,72.878 337.957,72.987 C327.544,73.122 298.484,46.31 295.962,33.992 C290.251,6.104 317.845,-8.013 336.957,6.996 L336.957,6.996 Z M370.952,28.993 C372.12,18.815 367.659,10.699 359.954,8.995 C346.829,6.093 345.816,15.691 336.957,18.994 C330.93,16.264 330.502,10.359 324.958,8.995 C310.187,5.361 302.119,17.58 303.961,29.993 C306.155,44.78 330.198,58.919 337.957,63.989 C347.138,56.118 369.046,45.619 370.952,28.993 L370.952,28.993 Z" id="Shape"></path>
                <path d="M435.944,6.996 C461.566,-13.016 489.417,15.788 473.939,42.991 C467.668,54.013 445.464,72.878 436.944,72.987 C426.531,73.122 397.471,46.31 394.949,33.992 C389.239,6.104 416.832,-8.013 435.944,6.996 L435.944,6.996 Z M469.94,28.993 C471.107,18.815 466.646,10.699 458.941,8.995 C445.816,6.093 444.804,15.691 435.944,18.994 C429.918,16.264 429.49,10.359 423.946,8.995 C409.174,5.361 401.106,17.58 402.948,29.993 C405.142,44.78 429.185,58.919 436.944,63.989 C446.126,56.118 468.034,45.619 469.94,28.993 L469.94,28.993 Z" id="Shape"></path>
            </g>
            <path d="M43.086,14.811 L43.086,67.811 L6.836,39.144 L6.836,14.811 L17.821,6.811 C17.821,6.811 34.298,5.144 34.664,6.811 C35.031,8.478 43.086,13.478 43.086,13.478" id="Shape" sketch:type="MSShapeGroup"></path>
            <path d="M141.836,14.811 L141.836,67.811 L105.586,39.144 L105.586,14.811 L116.571,6.811 C116.571,6.811 133.048,5.144 133.414,6.811 C133.781,8.478 141.836,13.478 141.836,13.478" id="Shape" sketch:type="MSShapeGroup"></path>
            <path d="M240.086,14.811 L240.086,67.811 L203.836,39.144 L203.836,14.811 L214.821,6.811 C214.821,6.811 231.298,5.144 231.664,6.811 C232.031,8.478 240.086,13.478 240.086,13.478" id="Shape" sketch:type="MSShapeGroup"></path>
            <path d="M40.086,14.811 L40.086,67.811 L76.336,39.144 L76.336,14.811 L65.351,6.811 C65.351,6.811 48.874,5.144 48.508,6.811 C48.141,8.478 40.086,13.478 40.086,13.478" id="Shape" sketch:type="MSShapeGroup"></path>
            <path d="M140.336,14.811 L140.336,67.811 L176.586,39.144 L176.586,14.811 L165.601,6.811 C165.601,6.811 149.124,5.144 148.758,6.811 C148.391,8.478 140.336,13.478 140.336,13.478" id="Shape" sketch:type="MSShapeGroup"></path>
        </g>
    </g>
</svg>