<?xml version="1.0" encoding="UTF-8" standalone="no"?>
<svg width="493px" height="836px" viewBox="0 0 493 836" version="1.1" xmlns="http://www.w3.org/2000/svg" xmlns:xlink="http://www.w3.org/1999/xlink" xmlns:sketch="http://www.bohemiancoding.com/sketch/ns">
    <!-- Generator: Sketch 3.2.1 (9977) - http://www.bohemiancoding.com/sketch -->
    <title>Honeydew Milk Tea</title>
    <desc>Created with Sketch.</desc>
    <defs></defs>
    <g id="Page-1" stroke="none" stroke-width="1" fill="none" fill-rule="evenodd" sketch:type="MSPage">
        <g id="Honeydew-Milk-Tea" sketch:type="MSLayerGroup" transform="translate(-54.000000, -75.000000)">
            <g id="Cup_outline" transform="translate(56.000000, 246.000000)" stroke="#E6E8D4" stroke-width="3" fill="#E6E8D4" sketch:type="MSShapeGroup" opacity="0.8">
                <path d="M103.096,615.572 L112.096,644.07 C112.096,644.07 282.001,687 384.001,644.07 L390.001,615.572 L398.001,615.572 L438,142 L453,142 L453,29 L489,29 L489,5.68434189e-14 L0,5.68434189e-14 L0,28 L36,28 L36,141 L51,141 L94,617 L103.096,615.572 L103.096,615.572 Z" id="Shape"></path>
            </g>
            <g id="Bottom_of_Drink" transform="translate(159.000000, 862.000000)" fill="#85AA7B" sketch:type="MSShapeGroup">
                <path d="M0.926,0.572 L9.926,29.07 C9.926,29.07 189.831,67.14 281.831,29.07" id="Shape"></path>
                <path d="M281.83,30.07 L287.83,1.572 C287.83,1.572 188.83,33.144 2.83,1.572" id="Shape"></path>
            </g>
            <g id="Drink" transform="translate(107.000000, 373.000000)" sketch:type="MSShapeGroup">
                <path d="M52.096,493.572 C52.096,493.572 233,530.144 339,493.572" id="Shape" fill="#A5DB95"></path>
                <path d="M340.676,494.137 L350.676,494.137 L388.676,20.564 C388.676,20.564 275.065,77.465 1.676,19.564" id="Shape" fill="#A5DB95"></path>
                <path d="M52.096,493.572 L43.333,492.72 L0.244,21.705 L339.83,490 L319.872,495.94 L52.096,493.572" id="Shape" fill="#A5DB95"></path>
                <path d="M1.676,19.564 C162.165,67.667 253.454,70.334 389.676,20.564" id="Shape" fill="#C3E0B8"></path>
                <path d="M0,21 C179,-26 388.676,21.564 388.676,21.564" id="Shape" fill="#C3E0B8"></path>
                <path d="M84.474,130.334 L73.069,89 L29.333,42.334 L4.667,21.705 L0,20 L22,98.334 L52.627,113 L84.474,130.334 Z" id="Shape" fill="#A5DB95"></path>
                <path d="M327.143,496.806 L343.334,493.572 L339,484.334 L327.143,493.572 L304.016,501.105 L327.143,496.806 Z" id="Shape" fill="#A5DB95"></path>
                <path d="M75.266,111.667 L75.266,147.667 L102.667,163 L105.799,130.334 L78.924,110.218" id="Shape" fill="#A5DB95"></path>
            </g>
            <g id="Layer_5" transform="translate(113.000000, 500.000000)" fill="#847079" sketch:type="MSShapeGroup">
                <path d="M375.591,5.68434189e-14 C375.591,5.68434189e-14 259.081,44 0.757,5.68434189e-14 L14.458,148.98 C14.458,148.98 174.837,204.96 362.782,148.98" id="Shape"></path>
            </g>
            <g id="Layer_3" transform="translate(161.000000, 771.000000)" fill="#584048" sketch:type="MSShapeGroup">
                <circle id="Oval" cx="23" cy="69" r="23"></circle>
                <circle id="Oval" cx="78.5" cy="79" r="23"></circle>
                <circle id="Oval" cx="138" cy="79" r="23"></circle>
                <circle id="Oval" cx="196" cy="79" r="23"></circle>
                <circle id="Oval" cx="256" cy="69" r="23"></circle>
                <circle id="Oval" cx="219" cy="23" r="23"></circle>
                <circle id="Oval" cx="162.5" cy="29" r="23"></circle>
                <circle id="Oval" cx="109.5" cy="29" r="23"></circle>
                <circle id="Oval" cx="55.5" cy="23" r="23"></circle>
            </g>
            <g id="Layer_4" transform="translate(159.000000, 539.000000)" sketch:type="MSShapeGroup">
                <g id="Group">
                    <path d="M16.7,10.847 C17.111,10.824 17.033,11.696 17.284,11.138 C18.072,12.104 17.836,14.092 17.868,15.813 C17.279,14.356 17.091,12.5 16.7,10.847 L16.7,10.847 Z" id="Shape" fill="#FF8080"></path>
                    <path d="M149.027,13.184 C151.605,12.308 153.119,14.262 153.409,16.397 C153.763,19.025 153.409,24.258 153.409,26.913 L153.409,54.372 C153.409,58.668 154.361,65.04 150.487,65.182 C146.374,65.331 147.273,59.253 147.273,54.372 C147.273,41.801 147.144,32.06 147.273,19.61 C147.293,17.81 146.939,15.976 147.566,14.645 C147.629,14.512 148.101,14.46 148.15,14.352 C148.271,14.085 148.597,13.33 149.027,13.184 L149.027,13.184 Z" id="Shape" fill="#FF8080"></path>
                    <path d="M164.217,52.619 C163.799,56.89 165.738,65.018 161.296,65.181 C157.153,65.331 158.082,58.943 158.082,54.079 L158.082,25.452 C158.082,20.702 157.263,14.965 159.835,13.183 C160.583,13.412 161.596,12.885 162.464,13.183 C162.695,13.262 163.812,14.405 163.926,14.644 C164.945,16.795 164.217,23.229 164.217,26.036 L164.217,40.641 C164.766,41.073 164.95,40.173 165.385,39.765 C166.543,38.681 167.892,37.096 169.184,35.676 C171.047,33.626 172.744,30.877 175.61,31.878 C176.077,32.041 176.35,32.991 177.07,33.338 C177.462,37.032 174.665,38.808 172.981,40.641 C171.566,42.184 170.351,43.704 168.892,45.316 C168.481,45.769 167.628,45.936 167.723,46.776 C167.678,46.74 167.461,46.822 167.43,46.776 C168.192,47.892 169.534,49.171 170.643,50.282 C174.144,53.783 177.837,57.29 181.161,60.506 C182.519,63.611 179.884,66.247 176.778,64.888 C172.714,60.579 168.526,56.392 164.217,52.326 C164.217,52.424 164.217,52.522 164.217,52.619 L164.217,52.619 Z" id="Shape" fill="#FF8080"></path>
                    <path d="M127.702,49.698 C127.167,52.726 128.564,58.294 129.455,61.09 C130.115,63.16 131.158,64.874 132.377,67.226 C132.892,68.22 133.495,68.402 133.545,69.563 C133.597,70.769 132.726,72.492 131.5,72.776 C129.843,73.16 128.971,72.254 127.995,71.314 C127.125,70.478 126.755,69.286 126.242,68.394 C125.921,67.837 125.354,67.522 125.073,66.933 C124.392,65.509 123.852,63.391 123.32,61.674 C122.909,60.35 122.396,59.228 122.153,57.877 C121.483,54.175 121.371,49.329 121.276,44.44 C118.935,48.074 117.407,53.228 112.512,52.911 C109.382,52.708 107.913,49.998 106.67,47.361 C105.371,44.608 104.414,41.661 103.748,38.889 C102.924,41.707 102.572,44.618 101.996,47.653 C98.748,64.782 93.828,81.811 85.054,93.807 C83.561,95.847 82.026,98.026 80.38,99.649 C79.841,100.18 79.013,100.546 78.335,101.111 C77.678,101.655 77.242,102.369 76.582,102.862 C72.016,106.281 63.457,109.847 56.134,106.952 C55.775,106.81 55.188,106.374 54.674,106.076 C54.449,105.945 54.063,105.955 53.798,105.784 C53.545,105.622 53.454,105.076 53.213,104.908 C52.931,104.71 52.58,104.829 52.337,104.615 C50.486,102.99 47.82,98.813 47.371,95.559 C46.614,90.078 48.086,85.831 50.584,82.706 C51.928,81.023 53.542,79.224 56.427,79.784 C57.666,81.067 58.399,81.759 57.595,83.874 C57.042,85.33 54.761,86.564 54.089,88.256 C52.044,93.411 54.61,99.789 58.471,101.402 C62.609,103.129 68.453,100.8 71.617,98.773 C74.133,97.16 76.911,94.632 78.92,92.054 C87.509,81.03 92.286,64.937 95.57,48.529 C97.299,39.888 98.298,31.198 99.659,20.778 C99.872,19.157 99.587,18.36 100.243,17.273 C100.826,16.309 101.659,15.847 102.581,15.812 C105.744,15.694 105.888,19.368 106.379,22.239 C107.899,31.131 109.587,39.46 112.805,46.192 C113.442,46.085 113.96,45.258 114.266,44.731 C114.875,43.678 115.471,42.276 116.018,40.934 C118.456,34.967 120.029,29.328 121.861,21.947 C122.507,19.349 123.111,15.043 125.951,14.936 C130.717,14.758 128.627,21.448 128.288,25.16 C127.824,30.245 127.764,33.95 127.703,38.597 C127.216,41.618 127.216,46.678 127.702,49.698 L127.702,49.698 Z" id="Shape" fill="#FF8080"></path>
                    <path d="M53.799,28.374 C55.277,30.766 53.833,35.576 53.214,38.89 C50.656,52.583 48.214,65.063 45.619,79.494 C45.029,82.777 44.064,87.895 43.282,91.764 C42.957,93.374 42.788,95.027 42.406,95.561 C41.573,96.726 38.594,97.435 36.272,98.19 C32.13,99.537 27.689,100.728 22.543,99.651 C19.65,99.046 13.759,97.24 12.611,95.561 C12.206,94.969 12.069,93.339 11.735,91.764 C8.391,76.012 5.317,58.706 2.095,42.688 C1.722,40.834 1.341,39.354 0.927,37.139 C0.599,35.391 0.464,32.087 0.927,30.126 C1.432,31.432 3.139,33.65 4.432,34.509 C5.446,35.182 6.285,35.622 7.645,36.262 C17.478,40.886 34.493,41.396 45.328,37.139 C49.642,35.443 54.053,32.735 53.507,28.375 C53.604,28.374 53.701,28.374 53.799,28.374 L53.799,28.374 Z M17.284,73.359 C15.336,72.966 13.245,74.416 12.903,75.112 C12.414,76.106 12.325,78.025 12.903,79.202 C13.341,80.092 15.299,81.015 16.408,80.954 C14.945,82.358 15.409,85.962 16.992,86.796 C16.502,87.476 15.889,88.031 15.531,88.841 C14.562,93.5 19.659,94.976 22.25,92.64 C22.494,95.884 27.89,96.46 29.261,93.808 C30.142,95.196 33.329,95.252 34.227,94.392 C34.917,93.73 35.353,92.912 35.98,92.347 C39.036,94.114 42.017,91.618 41.823,88.841 C41.672,86.693 39.783,85.706 37.733,85.044 C38.671,83.816 37.041,82.118 37.441,81.538 C43.674,81.419 41.846,72.86 36.565,73.944 C36.294,73.999 35.42,74.557 35.104,74.819 C34.696,75.159 34.434,75.895 33.937,76.279 C33.214,72.949 27.709,73.04 26.634,75.988 C26.063,72.919 21.081,72.683 19.623,75.112 C18.686,74.654 18.394,73.583 17.284,73.359 L17.284,73.359 Z" id="Shape" fill="#BD9DBD"></path>
                    <path d="M139.971,29.25 C140.045,30.071 141.2,30.058 141.432,30.711 C142.17,32.797 140.607,35.349 137.926,34.8 C135.102,34.222 134.651,28.463 139.971,29.25 L139.971,29.25 Z" id="Shape" fill="#FF8080"></path>
                    <path id="Shape" fill="#FF8080" d="M127.702,38.597 L127.702,49.699 C127.216,46.678 127.216,41.618 127.702,38.597 L127.702,38.597 Z"></path>
                    <path d="M137.343,40.642 C139.862,39.788 141.433,41.705 141.725,43.855 C142.093,46.579 141.725,51.812 141.725,54.372 C141.725,60.43 142.354,65.048 138.803,65.182 C134.725,65.333 135.59,59.848 135.59,54.958 L135.59,48.238 C135.59,44.922 135.276,42.525 136.758,41.228 C136.818,41.174 137.343,40.642 137.343,40.642 L137.343,40.642 Z" id="Shape" fill="#FF8080"></path>
                    <path d="M275.221,80.078 C275.978,80.078 277.131,80.399 277.85,80.662 C278.956,81.066 279.609,81.81 280.187,82.415 C281.333,83.611 281.36,88.937 280.479,90.595 C280.413,90.72 279.942,90.781 279.895,90.886 C279.837,91.013 279.986,91.372 279.895,91.47 C279.666,91.717 279.3,91.551 279.019,91.763 C278.862,91.881 278.049,92.775 277.557,92.931 C276.036,93.416 273.029,93.159 271.716,92.347 C270.252,91.443 268.626,87.96 269.378,84.46 C269.931,81.89 272.395,80.079 275.221,80.078 L275.221,80.078 Z M274.053,90.886 C280.661,92.878 279.434,79.083 273.467,82.999 C271.391,84.361 271.437,90.097 274.053,90.886 L274.053,90.886 Z" id="Shape" fill="#554747"></path>
                    <path d="M118.063,80.954 C118.253,82.023 117.43,82.075 117.478,82.999 C115.949,82.792 113.641,81.701 112.804,83.292 C113.457,86.193 116.635,85.466 117.77,87.382 C118.49,88.594 118.476,90.278 118.063,91.179 C117.692,91.985 115.523,93.138 113.972,93.223 C112.664,93.296 111.246,92.702 110.175,92.347 L110.175,90.009 C111.567,90.558 114.695,91.708 115.725,90.009 C115.176,87.066 111.918,87.873 110.759,85.92 C110.518,85.511 110.198,84.488 110.175,84.168 C109.931,80.896 113.807,79.283 118.063,80.954 L118.063,80.954 Z" id="Shape" fill="#554747"></path>
                    <path id="Shape" fill="#EEDCA0" d="M151.948,80.37 L151.948,92.931"></path>
                    <path d="M151.948,80.37 L155.454,80.37 C156.798,83.7 158.896,86.275 160.419,89.426 C161.078,89.208 160.533,87.787 160.713,87.089 L160.713,80.37 L163.049,80.37 L163.049,92.931 L159.544,92.931 C158.018,89.784 156.059,87.068 154.577,83.875 C153.911,84.28 154.469,85.909 154.285,86.796 L154.285,92.931 L151.948,92.931 C151.948,88.744 151.948,84.557 151.948,80.37 L151.948,80.37 Z" id="Shape" fill="#554747"></path>
                    <path id="Shape" fill="#BD9DBD" d="M160.713,80.37 L160.713,87.089"></path>
                    <path d="M189.923,92.931 L189.923,80.37 C195.801,80.054 200.085,80.733 200.44,85.92 C200.553,87.597 199.994,89.11 199.271,90.302 C198.753,91.156 198.711,91.18 198.102,91.763 C196.793,93.017 193.168,92.975 189.923,92.931 L189.923,92.931 Z M192.844,82.707 C192.379,83.141 192.499,85.511 192.552,87.089 C192.615,88.948 192.114,91.665 193.721,90.595 C196.51,90.755 197.709,89.324 197.519,86.505 C197.746,84.72 196.955,83.952 196.351,82.999 C195.473,82.61 194.114,82.702 192.844,82.707 L192.844,82.707 Z" id="Shape" fill="#554747"></path>
                    <path id="Shape" fill="#BD9DBD" d="M212.708,80.37 L212.708,92.931"></path>
                    <path d="M212.708,80.37 L215.337,80.37 L215.337,92.931 L212.708,92.931 L212.708,80.37 L212.708,80.37 Z" id="Shape" fill="#554747"></path>
                    <path id="Shape" fill="#BD9DBD" d="M228.189,80.37 L228.189,92.931"></path>
                    <path d="M228.189,80.37 L235.201,80.37 L235.201,82.707 L231.111,82.707 C230.448,83.018 231.001,84.544 230.819,85.336 L234.909,85.336 L234.909,87.382 L231.111,87.382 C230.441,87.976 231.005,89.806 230.819,90.886 L235.201,90.886 L235.201,92.931 L228.189,92.931" id="Shape" fill="#554747"></path>
                    <path d="M256.817,92.64 C254.698,92.903 251.242,93.665 249.222,92.347 C247.647,91.319 246.946,88.796 246.885,87.089 C246.705,82.013 251.173,78.617 257.109,80.954 C257.157,81.878 256.333,81.931 256.525,82.999 C254.783,82.719 254.06,82.181 252.727,82.415 C248.459,83.163 248.222,92.283 254.479,90.886 C254.93,90.461 254.738,89.391 254.772,88.549 C254.447,87.804 252.513,88.667 252.143,87.965 L252.143,85.92 L257.109,85.92 C256.943,88.092 257.459,90.944 256.817,92.64 L256.817,92.64 Z" id="Shape" fill="#554747"></path>
                    <path d="M22.25,85.628 C23.468,86.066 23.572,87.616 25.171,87.673 C24.646,88.414 23.737,88.771 22.835,89.133 C22.513,88.286 22.473,87.158 21.375,87.089 C21.236,86.172 22.16,86.316 22.25,85.628 L22.25,85.628 Z" id="Shape" fill="#BD9DBD"></path>
                    <path d="M15.239,1.791 C15.061,2.942 15.893,3.085 16.699,3.252 C15.34,4.386 16.663,5.42 16.115,7.633 C15.79,6.489 14.884,4.397 15.531,3.252 C15.209,3.143 14.42,2.084 15.239,1.791 L15.239,1.791 Z" id="Shape" fill="#FF8080"></path>
                    <path d="M18.161,17.565 C19.436,19.811 19.581,23.394 20.206,26.912 C20.873,27.701 21.681,27.478 22.25,27.79 C24.074,28.783 25.878,28.136 26.924,26.912 C26.152,24.277 26.067,20.953 25.464,18.149 C26.402,19.248 27.995,18.627 29.846,18.733 C32.77,18.9 35.794,19.068 38.609,19.609 C40.887,20.047 43.547,20.97 45.912,21.947 C48.134,22.864 50.832,24.066 52.338,26.036 C52.518,26.271 52.438,26.64 52.63,26.912 C52.996,27.431 53.48,27.794 53.799,28.374 L53.507,28.374 C54.052,32.733 49.642,35.441 45.328,37.138 C34.494,41.395 17.478,40.885 7.645,36.261 C6.284,35.621 5.446,35.181 4.432,34.508 C3.139,33.65 1.432,31.431 0.927,30.125 C1.397,25.789 4.421,24.107 7.646,22.531 C10.739,21.019 14.576,19.862 18.454,19.318 C18.459,18.63 17.949,18.458 18.161,17.565 L18.161,17.565 Z" id="Shape" fill="#EEDCA0"></path>
                    <path d="M164.217,52.619 L164.217,52.326 C168.526,56.391 172.713,60.579 176.778,64.888 C172.421,60.969 168.574,56.538 164.217,52.619 L164.217,52.619 Z" id="Shape" fill="#FF8080"></path>
                    <path d="M167.723,46.776 C172.032,51.524 176.852,55.758 181.161,60.505 C177.838,57.289 174.144,53.782 170.643,50.281 C169.534,49.17 168.192,47.891 167.43,46.775 C167.461,46.822 167.678,46.74 167.723,46.776 L167.723,46.776 Z" id="Shape" fill="#FF8080"></path>
                    <path d="M263.244,47.944 C262.144,49.413 260.636,48.34 259.154,48.821 C257.602,49.324 256.412,50.712 255.357,52.034 C254.18,53.511 251.351,57.663 253.604,59.922 C255.375,60.38 256.059,59.024 256.817,58.17 C257.351,57.566 257.705,56.753 258.278,55.833 C258.39,55.651 258.773,55.411 258.862,55.248 C259.898,53.353 260.348,49.586 262.66,49.406 C265.025,49.222 265.017,51.181 265.873,52.911 C267.005,55.201 269.125,59.611 271.716,59.922 C274.307,60.233 276.275,57.571 277.557,56.125 C279.342,54.111 280.299,52.775 281.355,50.282 C280.961,47.967 280.887,46.109 282.524,45.608 C284.731,44.932 285.862,46.756 286.03,49.113 C286.172,51.137 285.214,53.4 284.569,54.664 C283.224,57.3 279.527,61.555 276.974,63.136 C275.672,63.941 273.765,64.687 271.716,64.596 C271.361,64.58 269.914,64.484 268.794,64.012 C267.572,63.497 266.556,62.18 265.581,61.09 C264.638,60.039 263.838,59.065 262.951,57.584 C261.184,60.297 259.492,63.083 256.525,64.596 C253.332,64.785 250.898,64.26 249.514,62.843 C249.216,62.538 248.198,60.88 248.053,60.215 C247.367,57.053 248.634,53.938 249.806,51.743 C250.754,49.968 251.903,48.768 253.312,47.361 C254.036,46.636 254.408,46.237 255.064,45.608 C256.185,44.534 259.671,43.569 262.075,44.44 C263.608,44.51 263.803,46.654 263.244,47.944 L263.244,47.944 Z" id="Shape" fill="#8BCB7C"></path>
                    <path d="M25.171,80.662 C24.559,80.125 26.686,79.856 26.34,78.617 C27.594,79.894 28.409,81.611 31.306,81.246 C29.848,82.711 30.185,86.84 32.474,87.089 C31.142,87.607 29.51,87.825 28.969,89.133 C28.127,89.001 28.055,88.1 26.924,88.257 C27.423,87.49 28.554,87.356 29.261,86.796 C29.383,85.813 30.134,85.128 30.137,84.168 C30.146,81.791 27.702,79.624 25.171,80.662 L25.171,80.662 Z" id="Shape" fill="#BD9DBD"></path>
                    <path d="M136.174,80.37 C137.718,84.474 139.245,88.594 140.557,92.931 L137.926,92.931 C137.489,92.103 137.318,91.009 137.05,90.009 L132.668,90.009 C131.73,90.435 131.902,91.971 131.5,92.931 L128.579,92.931 C130.102,88.806 131.604,84.661 132.96,80.37 L136.174,80.37 L136.174,80.37 Z M134.422,82.999 C133.94,84.562 133.593,86.26 132.96,87.673 L136.174,87.673 C135.689,86.015 135.632,83.931 134.422,82.999 L134.422,82.999 Z" id="Shape" fill="#554747"></path>
                    <path d="M16.116,7.633 C16.664,5.42 15.341,4.386 16.7,3.252 C15.893,3.085 15.062,2.942 15.24,1.791 C15.762,0.871 17.824,0.273 20.206,0.622 C21.158,0.762 21.934,1.866 22.835,2.084 C22.907,3.674 22.678,5.281 23.127,6.757 C23.236,7.116 23.603,7.445 23.711,7.925 C24.47,11.299 24.199,15.005 25.464,18.15 C26.068,20.954 26.152,24.278 26.924,26.913 C25.879,28.137 24.074,28.784 22.25,27.791 C21.681,27.479 20.873,27.702 20.206,26.913 C19.581,23.395 19.436,19.812 18.161,17.566 C18.199,16.845 18.204,16.159 17.869,15.813 C17.837,14.092 18.073,12.104 17.285,11.138 C17.034,11.696 17.112,10.824 16.701,10.847 C16.709,9.57 16.446,8.568 16.116,7.633 L16.116,7.633 Z" id="Shape" fill="#FF8080"></path>
                    <path d="M208.326,23.992 C210.81,22.679 212.677,20.494 215.337,19.026 C218.545,17.255 223.078,15.814 228.482,16.688 C230.252,16.974 232.562,17.734 234.617,18.441 C235.95,18.9 237.052,19.225 238.416,19.902 C239.895,20.636 242.039,21.912 242.212,23.699 C242.336,24.977 241.841,25.583 241.043,26.621 C240.522,27.299 239.759,28.078 238.999,28.666 C238.74,28.865 238.352,28.745 238.123,28.957 C237.995,29.076 237.963,29.441 237.83,29.542 C237.568,29.742 237.184,29.619 236.954,29.834 C236.838,29.943 236.784,30.334 236.662,30.418 C236.257,30.698 235.607,30.752 235.202,31.003 C234.362,31.522 234.011,31.856 232.864,32.463 C232.684,32.56 232.19,32.603 231.988,32.756 C231.88,32.837 231.798,33.288 231.696,33.339 C230.795,33.798 229.728,34.128 228.774,34.508 C226.744,35.32 224.42,36.097 222.64,36.261 C217.587,36.726 214.116,35.095 210.664,33.924 C209.538,34.209 208.913,35.551 208.326,36.553 C206.851,39.072 204.904,43.385 204.528,46.777 C204.14,50.287 204.731,53.216 206.281,55.541 C207.975,58.083 210.334,59.674 214.169,59.047 C217.262,58.541 219.457,55.902 221.764,56.417 C222.999,56.693 224.077,58.794 224.101,59.339 C224.205,61.723 220.108,64.097 215.922,65.182 C208.893,67 203.568,62.905 201.023,59.047 C199.745,57.109 198.304,53.74 198.102,50.283 C197.779,44.716 199.871,39.518 202.192,34.801 C196.961,36.636 189.644,36.287 184.958,33.633 C184.227,33.218 183.654,32.422 182.913,31.88 C182.642,31.682 182.27,31.806 182.036,31.588 C180.652,30.299 178.236,28.351 176.778,26.622 C176.579,26.384 176.691,25.965 176.487,25.745 C175.835,25.045 174.232,23.274 174.442,21.655 C174.719,19.521 177.135,18.897 179.992,18.15 C182.688,17.446 185.354,16.831 187.295,16.689 C197.438,15.951 203.92,19.397 208.326,23.992 L208.326,23.992 Z M191.968,22.823 C189.069,22.696 186.12,23.366 183.205,23.699 C183.183,24.741 184.49,25.105 185.249,25.744 C186.015,26.39 186.693,27.245 187.586,27.79 C188.016,28.05 188.533,28.122 189.047,28.374 C189.512,28.602 190.073,29.107 190.507,29.25 C194.912,30.693 199.282,29.124 202.777,27.498 C200.267,25.286 196.543,23.024 191.968,22.823 L191.968,22.823 Z M226.729,22.823 C221.117,22.306 216.277,25.383 213.583,28.374 C217.579,30.092 222.409,30.237 225.853,28.957 C228.619,27.929 231.569,26.11 233.156,24.576 C231.013,23.93 229.051,23.038 226.729,22.823 L226.729,22.823 Z" id="Shape" fill="#8BCB7C"></path>
                    <path d="M232.571,56.125 C232.807,57.327 233.098,58.522 233.447,59.046 C233.912,59.74 235.442,61 236.953,61.09 C240.29,61.29 244.976,57.862 246.009,60.798 C247.105,63.916 239.956,65.206 237.537,65.181 C234.295,65.146 231.242,63.368 230.234,62.259 C229.511,61.464 229.414,60.599 229.066,59.922 C228.717,59.242 228.171,58.723 227.898,57.584 C226.755,56.932 225.033,56.687 224.976,55.248 C224.924,53.95 225.996,53.583 227.313,52.911 C226.647,48.487 229.979,45.767 232.279,43.563 C233.175,42.706 237.012,41.143 239.291,41.518 C243.117,42.148 243.783,46.75 241.919,49.99 C241.038,51.521 240.584,51.768 238.998,52.911 C238.514,53.26 238.019,53.617 237.537,54.079 C236.751,54.834 233.868,55.417 232.571,56.125 L232.571,56.125 Z M237.537,45.608 C234.898,46.864 232.443,48.302 231.987,51.743 C235.132,50.799 237.875,49.452 238.415,45.9 C238.041,45.885 238.009,45.526 237.537,45.608 L237.537,45.608 Z" id="Shape" fill="#8BCB7C"></path>
                    <path d="M19.621,75.112 C21.079,72.683 26.061,72.919 26.632,75.988 C27.708,73.04 33.212,72.949 33.935,76.279 C34.432,75.895 34.695,75.159 35.102,74.819 C35.419,74.557 36.292,73.999 36.563,73.944 C41.844,72.86 43.672,81.419 37.439,81.538 C37.039,82.118 38.669,83.816 37.731,85.044 C39.782,85.706 41.67,86.692 41.821,88.841 C42.015,91.617 39.034,94.113 35.978,92.347 C35.352,92.911 34.915,93.73 34.225,94.392 C33.328,95.252 30.14,95.196 29.259,93.808 C27.888,96.46 22.492,95.884 22.248,92.64 C19.657,94.976 14.56,93.5 15.529,88.841 C15.887,88.031 16.5,87.476 16.99,86.796 C15.407,85.962 14.942,82.358 16.406,80.954 C15.297,81.016 13.338,80.092 12.901,79.202 C12.323,78.025 12.412,76.106 12.901,75.112 C13.243,74.416 15.335,72.966 17.282,73.359 C18.394,73.583 18.686,74.654 19.621,75.112 L19.621,75.112 Z M30.137,84.168 C30.133,85.128 29.383,85.813 29.261,86.796 C28.554,87.356 27.423,87.49 26.924,88.257 C28.055,88.1 28.127,89.001 28.969,89.133 C29.511,87.825 31.142,87.607 32.474,87.089 C30.184,86.84 29.848,82.711 31.306,81.246 C28.41,81.611 27.595,79.894 26.34,78.617 C26.686,79.856 24.559,80.125 25.171,80.662 C27.702,79.624 30.146,81.791 30.137,84.168 L30.137,84.168 Z M21.374,87.089 C22.473,87.158 22.513,88.286 22.834,89.133 C23.737,88.771 24.645,88.414 25.17,87.673 C23.571,87.616 23.467,86.066 22.249,85.628 C22.16,86.316 21.236,86.172 21.374,87.089 L21.374,87.089 Z" id="Shape" fill="#554747"></path>
                    <path d="M16.214,7.929 L14.888,2.172 L22.834,2.084 L23.806,8.389 L26,21.563 L19.813,22.5 L16.214,7.929 Z" id="Shape" fill="#FF8080"></path>
                </g>
            </g>
            <g id="Layer_6" transform="translate(293.000000, 75.000000)" fill="#E3C186" sketch:type="MSShapeGroup">
                <path d="M73.062,178.869 L129.338,20.86 C105.27,1.876 68.432,0.93 68.432,0.93 L0.839,177.092" id="Shape"></path>
            </g>
        </g>
    </g>
</svg>